<?xml version="1.0" ?><svg data-name="Layer 1" id="Layer_1" viewBox="0 0 57 80" xmlns="http://www.w3.org/2000/svg"><defs><style>.cls-1{fill:none;}</style></defs><title/><path class="cls-1" d="M28.5,19.08A21.94,21.94,0,0,0,6.58,41c0,11.23,19.35,25,21.92,26.81C31.07,66,50.42,52.23,50.42,41A21.94,21.94,0,0,0,28.5,19.08Zm6.41,31.16a7.83,7.83,0,0,1-2.82-.52,7.94,7.94,0,0,1-3.47-2.63l-.12.08-.08-.05A7.93,7.93,0,0,1,25,49.73a7.84,7.84,0,0,1-2.82.52A8,8,0,0,1,20.33,50l.23-1a6.86,6.86,0,0,0,7-2.5c-1.63-1.12-5.16-3.74-5.16-5.57,0-2.29,2.67-4.08,6.08-4.08s6.08,1.79,6.08,4.08c0,1.82-3.48,4.42-5.13,5.55a6.86,6.86,0,0,0,7,2.52l.23,1A8,8,0,0,1,34.91,50.25Z"/><path class="cls-1" d="M33.58,41c0-1.67-2.33-3.08-5.08-3.08S23.42,39.33,23.42,41c0,1.13,2.89,3.53,5.08,5C30.7,44.53,33.58,42.13,33.58,41Z"/><path class="cls-1" d="M14.76,22.67a4.68,4.68,0,0,0-3-1.93,4.73,4.73,0,0,0-3.49.79l-.58-.81a5.59,5.59,0,0,1,7.87,1.37q.56-.38,1.14-.73A4.83,4.83,0,0,0,15,18.9,6.63,6.63,0,0,0,6.43,29a3.83,3.83,0,0,0,2,.92A23.08,23.08,0,0,1,14.76,22.67Z"/><path class="cls-1" d="M41.87,18.9a4.91,4.91,0,0,0-1.7,2.39q.73.43,1.42.92a5.59,5.59,0,0,1,7.95-1.49l-.58.81a4.59,4.59,0,0,0-6.54,1.24L42,22.52a23.08,23.08,0,0,1,6.52,7.4,3.86,3.86,0,0,0,1.89-.9A6.63,6.63,0,0,0,41.87,18.9Z"/><path d="M52,19a7.63,7.63,0,0,0-10.75-.89,6.09,6.09,0,0,0-2,2.64,22.87,22.87,0,0,0-21.67.06,6,6,0,0,0-2-2.7A7.62,7.62,0,0,0,5.78,29.78a4.91,4.91,0,0,0,2.17,1.1A22.77,22.77,0,0,0,5.58,41c0,12.5,21.71,27.21,22.64,27.83l.28.19.28-.19C29.7,68.21,51.42,53.5,51.42,41A22.77,22.77,0,0,0,49,30.84a4.94,4.94,0,0,0,2.05-1.07A7.62,7.62,0,0,0,52,19ZM6.43,29A6.63,6.63,0,0,1,15,18.9a4.83,4.83,0,0,1,1.72,2.45q-.58.35-1.14.73a5.59,5.59,0,0,0-7.87-1.37l.58.81a4.73,4.73,0,0,1,3.49-.79,4.68,4.68,0,0,1,3,1.93,23.08,23.08,0,0,0-6.32,7.26A3.83,3.83,0,0,1,6.43,29ZM28.5,67.81C25.93,66,6.58,52.23,6.58,41a21.92,21.92,0,1,1,43.83,0C50.42,52.23,31.07,66,28.5,67.81ZM52.76,24.5A6.58,6.58,0,0,1,50.44,29a3.86,3.86,0,0,1-1.89.9A23.08,23.08,0,0,0,42,22.52l.39.25A4.59,4.59,0,0,1,49,21.53l.58-.81a5.59,5.59,0,0,0-7.95,1.49q-.69-.48-1.42-.92a4.91,4.91,0,0,1,1.7-2.39,6.63,6.63,0,0,1,10.89,5.6Z"/><path d="M32.44,48.79a6.93,6.93,0,0,1-3-2.25c1.65-1.13,5.13-3.73,5.13-5.55,0-2.29-2.67-4.08-6.08-4.08S22.42,38.71,22.42,41c0,1.83,3.53,4.46,5.16,5.57a6.86,6.86,0,0,1-7,2.5l-.23,1a8,8,0,0,0,1.82.21A7.84,7.84,0,0,0,25,49.73a7.93,7.93,0,0,0,3.45-2.6l.08.05.12-.08a7.94,7.94,0,0,0,3.47,2.63,7.83,7.83,0,0,0,2.82.52A8,8,0,0,0,36.72,50l-.23-1A7,7,0,0,1,32.44,48.79Zm-9-7.79c0-1.67,2.33-3.08,5.08-3.08s5.08,1.41,5.08,3.08c0,1.13-2.89,3.53-5.08,5C26.3,44.53,23.42,42.13,23.42,41Z"/></svg>